<?xml version="1.0" encoding="UTF-8"?>
<svg width="197px" height="30px" viewBox="0 0 197 30" version="1.1" xmlns="http://www.w3.org/2000/svg" xmlns:xlink="http://www.w3.org/1999/xlink">
    <!-- Generator: Sketch 49.2 (51160) - http://www.bohemiancoding.com/sketch -->
    <title>Servian White Logo (1)</title>
    <desc>Created with Sketch.</desc>
    <defs></defs>
    <g id="Page-1" stroke="none" stroke-width="1" fill="none" fill-rule="evenodd">
        <g id="Servian-White-Logo-(1)">
            <path d="M67.8052577,0.276511628 C67.3984504,0.219069767 66.5873972,0.100232558 65.4861998,0.100232558 C58.8191702,0.100232558 56.3848463,4.08883721 56.3848463,10.012093 L56.3848463,27.9583721 C56.3848463,29.072093 56.6752234,29.365814 57.7766537,29.365814 L58.0658664,29.365814 C59.1670638,29.365814 59.4574409,29.072093 59.4574409,27.9583721 L59.4574409,10.1295349 C59.4574409,5.61372093 60.7903345,3.03395349 65.4861998,3.03395349 C66.4723641,3.03395349 67.1092376,3.09139535 67.7477411,3.20883721 C68.7902577,3.38511628 69.0806348,3.09139535 69.0806348,2.03511628 L69.0806348,1.68395349 C69.0806348,0.629069767 68.8491714,0.394186047 67.8052577,0.276511628" id="Fill-1" fill="#FFFFFE"></path>
            <path d="M105.941757,0.628604651 L105.651379,0.628604651 C104.549716,0.628604651 104.259572,0.922325581 104.259572,2.03604651 L104.259572,27.9581395 C104.259572,29.0718605 104.549716,29.3655814 105.651379,29.3655814 L105.941757,29.3655814 C107.042954,29.3655814 107.333331,29.0718605 107.333331,27.9581395 L107.333331,2.03604651 C107.333331,0.922325581 107.042954,0.628604651 105.941757,0.628604651" id="Fill-2" fill="#FFFFFE"></path>
            <path d="M159.235147,0.100465116 C150.539203,0.100465116 147.583272,6.02023256 147.583272,12.3534884 L147.583272,27.9574419 C147.583272,29.0725581 147.872252,29.3648837 148.973682,29.3648837 L149.264059,29.3648837 C150.365257,29.3648837 150.655634,29.0725581 150.655634,27.9574419 L150.655634,12.3534884 C150.655634,7.48651163 152.453084,3.0327907 159.235147,3.0327907 C166.017209,3.0327907 167.815824,7.48651163 167.815824,12.3534884 L167.815824,27.9574419 C167.815824,29.0725581 168.103639,29.3648837 169.206001,29.3648837 L169.496378,29.3648837 C170.597809,29.3648837 170.887021,29.0725581 170.887021,27.9574419 L170.887021,12.3534884 C170.887021,5.96139535 168.047287,0.100465116 159.235147,0.100465116" id="Fill-3" fill="#FFFFFE"></path>
            <g id="Group-7" fill="#FFFFFE">
                <path d="M37.6912695,0.0527906977 L37.4835579,0.0527906977 C33.2420035,0.0527906977 29.1906962,2.10511628 26.6464622,5.54488372 C25.0956111,7.63976744 24.1783735,10.1283721 23.9906879,12.7369767 C23.7089267,16.664186 24.1369243,19.7539535 25.2972683,22.1825581 C27.5425095,26.8834884 32.3259303,29.9195349 37.4835579,29.9195349 L38.1767837,29.9195349 C42.2092293,29.9195349 45.9939113,28.1095349 48.5532813,25.0162791 C49.0115508,24.4625581 49.1643073,23.8937209 48.1229551,23.4225581 L47.7573641,23.2437209 C46.7148475,22.7388372 46.2842884,23.0248837 45.4757967,23.8025581 C43.5172069,25.6848837 40.9340851,26.8074419 38.1767837,26.8074419 L37.4835579,26.8074419 C33.4986158,26.8074419 29.8028865,24.46 28.0669113,20.8288372 C27.4787057,19.5965116 27.1319764,18.0990698 27.0218333,16.297907 L49.0364669,16.297907 C50.7372801,16.297907 51.2078913,15.4616279 51.2078913,13.7530233 C51.2078913,6.09232558 45.1504905,0.0527906977 37.6912695,0.0527906977 M27.0444208,13.1855814 C27.0493109,13.1106977 27.0544338,13.0367442 27.0593239,12.9618605 C27.2046288,10.9483721 27.9129905,9.0272093 29.1094279,7.40976744 C31.0768664,4.75232558 34.2069775,3.16511628 37.4835579,3.16511628 L37.6912695,3.16511628 C43.2706076,3.16511628 47.842591,7.61093023 48.1292423,13.1855814 L27.0444208,13.1855814" id="Fill-4"></path>
                <path d="M10.4240012,12.9632558 C8.28634161,12.2109302 6.26767376,11.5009302 5.04748463,10.2911628 C4.26507329,9.51372093 3.84080142,8.81488372 3.84080142,7.34883721 C3.84080142,5.63627907 4.85840189,4.58906977 5.71067139,4.0127907 C6.87101537,3.22790698 8.46773995,2.79674419 10.2062766,2.79674419 C12.8580922,2.79674419 14.9983132,3.8127907 15.9572329,4.33651163 C16.9045095,4.8527907 17.671552,4.47651163 18.032253,3.99023256 L18.1922281,3.72767442 C18.5338345,3.09906977 18.5727222,2.6327907 18.1472861,2.32906977 C17.856909,2.12023256 15.0083262,0.0330232558 9.97085461,0.0330232558 C7.44781087,0.0330232558 5.13993026,0.721860465 3.47055319,1.97046512 C1.66821277,3.31767442 0.715813239,5.19767442 0.715813239,7.40767442 C0.715813239,9.47604651 1.34639953,11.1086047 2.64576123,12.3972093 C4.29138652,14.032093 6.74201064,14.8846512 9.11253073,15.7095349 C11.2688191,16.4595349 13.3063487,17.1681395 14.5377151,18.3904651 C15.5765059,19.4218605 16.0396655,20.474186 16.0396655,21.8016279 C16.0396655,25.1676744 13.3063487,27.1774419 8.72691371,27.1774419 C5.56303783,27.1774419 2.88840189,25.8062791 1.77090426,25.2113953 C1.13496217,24.8702326 0.920963357,24.9213953 0.374206856,25.7225581 L0.231463357,25.9725581 C-0.240544917,26.9051163 0.0638037825,27.5425581 0.668309693,27.9448837 C1.02365485,28.1811628 1.17384988,28.2862791 2.39776478,28.7723256 C3.80703664,29.3323256 6.09000118,29.9997674 8.9646643,29.9997674 C12.0346974,29.9997674 14.6043132,29.2434884 16.3964078,27.8151163 C18.2474161,26.3374419 19.2249645,24.1790698 19.2249645,21.567907 C19.2249645,19.4830233 18.5566548,17.8881395 17.057266,16.4006977 C15.3364267,14.692093 12.8394634,13.812093 10.4240012,12.9632558" id="Fill-6"></path>
            </g>
            <path d="M96.6892766,0.628604651 L96.341383,0.628604651 C95.2399527,0.628604651 94.8920591,0.922325581 94.601682,1.9772093 L88.0548085,23.6383721 C87.2814787,26.1955814 86.6781371,26.9967442 85.5331619,26.9967442 C84.3891182,26.9967442 83.7846123,26.1955814 83.0098853,23.6383721 L76.4630118,1.9772093 C76.1740319,0.922325581 75.8261383,0.628604651 74.724708,0.628604651 L74.3768144,0.628604651 C73.2753842,0.628604651 73.0439208,0.922325581 73.3342979,1.9772093 L79.6008073,22.7383721 C81.2578428,28.1867442 82.3716147,29.7765116 85.5331619,29.7765116 C88.6930792,29.7765116 89.8082482,28.1867442 91.4652837,22.7383721 L97.7331903,1.9772093 C98.0221702,0.922325581 97.7907069,0.628604651 96.6892766,0.628604651" id="Fill-8" fill="#FFFFFE"></path>
            <path d="M136.918493,3.75465116 C134.384039,1.3672093 131.118869,0.0523255814 127.724694,0.0523255814 L127.516982,0.0523255814 C126.285383,0.0523255814 125.06403,0.219767442 123.887385,0.550930233 C120.664596,1.4572093 117.799946,3.63069767 116.025083,6.51325581 C115.065232,8.07302326 114.453274,9.8155814 114.15172,11.8390698 C113.916531,13.4165116 113.875082,15.1862791 114.025277,17.25 C114.27304,20.6648837 115.806194,23.855814 118.340648,26.2344186 C120.87254,28.6106977 124.131423,29.9193023 127.516982,29.9193023 L127.724694,29.9193023 C128.919734,29.9193023 130.106391,29.7616279 131.251599,29.4490698 C133.968616,28.7090698 136.44043,27.0681395 138.227635,24.8569767 L138.227635,27.9981395 C138.227635,29.1118605 138.516615,29.4055814 139.618045,29.4055814 L139.908422,29.4055814 C141.008455,29.4055814 141.299065,29.1118605 141.299065,27.9981395 L141.299065,15.5651163 C141.320022,14.5839535 141.279039,13.6413953 141.220125,12.7716279 C140.982142,9.34674419 139.455508,6.14325581 136.918493,3.75465116 M136.558025,21.8883721 C135.167615,24.1046512 132.9424,25.7644186 130.451956,26.4444186 C129.567086,26.6855814 128.65078,26.8069767 127.724694,26.8069767 L127.516982,26.8069767 C124.911273,26.8069767 122.394284,25.7930233 120.433132,23.952093 C118.470584,22.1109302 117.285557,19.6497674 117.092748,17.0213953 C116.808891,13.0902326 117.284392,10.3567442 118.637079,8.15790698 C120.008861,5.92953488 122.222898,4.24953488 124.71078,3.54953488 C125.619635,3.29465116 126.563186,3.16581395 127.516982,3.16581395 L127.724694,3.16581395 C130.337855,3.16581395 132.858337,4.18325581 134.82205,6.03325581 C136.78716,7.88302326 137.968694,10.3530233 138.150092,12.9890698 C138.334052,15.6551163 138.320313,19.0772093 136.558025,21.8883721" id="Fill-9" fill="#FFFFFE"></path>
            <path d="M196.991384,27.8344186 L196.991384,27.5155814 C196.991384,26.3055814 196.668407,25.9867442 195.440533,25.9867442 L177.839072,25.9867442 C176.612363,25.9867442 176.289385,26.3055814 176.289385,27.5155814 L176.289385,27.8344186 C176.289385,29.044186 176.612363,29.3630233 177.839072,29.3630233 L195.440533,29.3630233 C196.668407,29.3630233 196.991384,29.044186 196.991384,27.8344186" id="Fill-10" fill="#D9663C"></path>
        </g>
    </g>
</svg>